<svg width="374" height="58" viewBox="0 0 374 58" fill="none" xmlns="http://www.w3.org/2000/svg">
<g clip-path="url(#clip0_152_159)">
<rect width="1512" height="6315" transform="translate(-95 -751)" fill="#F6F6F6"/>
<path d="M45.1648 39H34.7102L39.5398 9.90909H49.7955C52.7216 9.90909 55.1506 10.5057 57.0824 11.6989C59.0237 12.892 60.392 14.6013 61.1875 16.8267C61.983 19.0426 62.125 21.6894 61.6136 24.767C61.1212 27.7405 60.1411 30.2926 58.6733 32.4233C57.2055 34.5445 55.3258 36.1733 53.0341 37.3097C50.7424 38.4366 48.1193 39 45.1648 39ZM41.7415 33.7301H45.5199C47.3475 33.7301 48.9479 33.3892 50.321 32.7074C51.7036 32.0256 52.8352 30.9744 53.7159 29.554C54.6061 28.1335 55.2358 26.3153 55.6051 24.0994C55.9555 21.9972 55.9318 20.2926 55.5341 18.9858C55.1458 17.6695 54.393 16.7083 53.2756 16.1023C52.1581 15.4867 50.6903 15.179 48.8722 15.179H44.8239L41.7415 33.7301ZM73.5845 39.4261C71.3591 39.4261 69.5173 38.9527 68.0589 38.0057C66.6006 37.0492 65.5732 35.7235 64.9766 34.0284C64.3894 32.3239 64.2805 30.34 64.6499 28.0767C65.0097 25.8419 65.7578 23.8864 66.8942 22.2102C68.0305 20.5341 69.4747 19.232 71.2266 18.304C72.9785 17.3665 74.9529 16.8977 77.1499 16.8977C79.3658 16.8977 81.2029 17.3759 82.6612 18.3324C84.1196 19.2794 85.147 20.6051 85.7436 22.3097C86.3402 24.0142 86.4538 25.9981 86.0845 28.2614C85.7152 30.4867 84.9576 32.4375 83.8118 34.1136C82.666 35.7898 81.2218 37.0966 79.4794 38.0341C77.737 38.9621 75.772 39.4261 73.5845 39.4261ZM74.1811 34.7386C75.2038 34.7386 76.1082 34.4498 76.8942 33.8722C77.6896 33.285 78.3478 32.4896 78.8686 31.4858C79.3989 30.4725 79.7682 29.3267 79.9766 28.0483C80.1849 26.7888 80.1991 25.6714 80.0192 24.696C79.8393 23.7112 79.4605 22.9347 78.8828 22.3665C78.3146 21.7983 77.5334 21.5142 76.5391 21.5142C75.5163 21.5142 74.6072 21.8078 73.8118 22.3949C73.0163 22.9725 72.3582 23.768 71.8374 24.7812C71.3165 25.7945 70.9519 26.9451 70.7436 28.233C70.5447 29.483 70.5305 30.6004 70.701 31.5852C70.8714 32.5606 71.2455 33.3324 71.8232 33.9006C72.4008 34.4593 73.1868 34.7386 74.1811 34.7386ZM96.4112 26.3864L94.3089 39H88.272L91.9084 17.1818H97.6612L97.0362 21.0312H97.2777C97.969 19.7528 98.9444 18.7443 100.204 18.0057C101.473 17.267 102.917 16.8977 104.536 16.8977C106.051 16.8977 107.316 17.2292 108.329 17.892C109.352 18.5549 110.071 19.4972 110.488 20.7188C110.914 21.9403 110.985 23.4034 110.701 25.108L108.371 39H102.32L104.465 26.1875C104.683 24.8523 104.513 23.8106 103.954 23.0625C103.405 22.3049 102.519 21.9261 101.298 21.9261C100.483 21.9261 99.7351 22.1013 99.0533 22.4517C98.3714 22.8021 97.7985 23.3134 97.3345 23.9858C96.88 24.6487 96.5722 25.4489 96.4112 26.3864ZM121.294 26.3864L119.192 39H113.155L116.791 17.1818H122.544L121.919 21.0312H122.161C122.852 19.7528 123.827 18.7443 125.087 18.0057C126.356 17.267 127.8 16.8977 129.419 16.8977C130.934 16.8977 132.198 17.2292 133.212 17.892C134.234 18.5549 134.954 19.4972 135.371 20.7188C135.797 21.9403 135.868 23.4034 135.584 25.108L133.254 39H127.203L129.348 26.1875C129.566 24.8523 129.395 23.8106 128.837 23.0625C128.287 22.3049 127.402 21.9261 126.18 21.9261C125.366 21.9261 124.618 22.1013 123.936 22.4517C123.254 22.8021 122.681 23.3134 122.217 23.9858C121.763 24.6487 121.455 25.4489 121.294 26.3864ZM144.16 39.4119C142.777 39.4119 141.579 39.1705 140.566 38.6875C139.562 38.1951 138.824 37.4659 138.35 36.5C137.877 35.5341 137.758 34.3362 137.995 32.9062C138.203 31.6941 138.596 30.6809 139.174 29.8665C139.761 29.0426 140.476 28.3797 141.319 27.8778C142.162 27.3759 143.094 26.9924 144.117 26.7273C145.149 26.4621 146.215 26.2822 147.313 26.1875C148.582 26.0549 149.614 25.9271 150.41 25.804C151.215 25.6809 151.816 25.5057 152.214 25.2784C152.612 25.0417 152.853 24.6913 152.938 24.2273V24.142C153.08 23.2519 152.915 22.5606 152.441 22.0682C151.977 21.5663 151.234 21.3153 150.211 21.3153C149.131 21.3153 148.213 21.5521 147.455 22.0256C146.707 22.4991 146.172 23.1004 145.85 23.8295L140.339 23.375C140.831 22.0492 141.575 20.9034 142.569 19.9375C143.573 18.9621 144.78 18.214 146.191 17.6932C147.602 17.1629 149.183 16.8977 150.935 16.8977C152.147 16.8977 153.279 17.0398 154.33 17.3239C155.391 17.608 156.305 18.0483 157.072 18.6449C157.848 19.2415 158.407 20.0085 158.748 20.946C159.098 21.8741 159.169 22.9867 158.961 24.2841L156.504 39H150.765L151.276 35.9744H151.106C150.642 36.6562 150.074 37.2576 149.401 37.7784C148.729 38.2898 147.957 38.6922 147.086 38.9858C146.215 39.2699 145.239 39.4119 144.16 39.4119ZM146.589 35.2358C147.469 35.2358 148.279 35.0606 149.018 34.7102C149.766 34.3504 150.381 33.8674 150.864 33.2614C151.357 32.6553 151.669 31.9687 151.802 31.2017L152.171 28.8864C151.982 29.0095 151.707 29.1184 151.347 29.2131C150.997 29.3078 150.613 29.3977 150.197 29.483C149.79 29.5587 149.378 29.6297 148.961 29.696C148.544 29.7528 148.17 29.8097 147.839 29.8665C147.11 29.9706 146.456 30.1364 145.879 30.3636C145.301 30.5909 144.832 30.8987 144.472 31.2869C144.112 31.6657 143.89 32.1392 143.805 32.7074C143.672 33.5312 143.866 34.161 144.387 34.5966C144.917 35.0227 145.651 35.2358 146.589 35.2358ZM170.57 39L175.399 9.90909H194.661L193.808 14.9801H180.697L179.561 21.9119H191.393L190.541 26.983H178.709L176.72 39H170.57ZM193.503 39L197.139 17.1818H203.006L202.366 20.9886H202.594C203.219 19.6345 204.057 18.6117 205.108 17.9205C206.169 17.2197 207.31 16.8693 208.531 16.8693C208.834 16.8693 209.152 16.8883 209.483 16.9261C209.824 16.9545 210.127 17.0019 210.392 17.0682L209.483 22.4517C209.218 22.357 208.839 22.2812 208.347 22.2244C207.864 22.1581 207.404 22.125 206.969 22.125C206.088 22.125 205.269 22.3191 204.511 22.7074C203.754 23.0862 203.115 23.6165 202.594 24.2983C202.082 24.9801 201.746 25.7661 201.585 26.6562L199.554 39H193.503ZM215.41 39.4119C214.027 39.4119 212.829 39.1705 211.816 38.6875C210.812 38.1951 210.074 37.4659 209.6 36.5C209.127 35.5341 209.008 34.3362 209.245 32.9062C209.453 31.6941 209.846 30.6809 210.424 29.8665C211.011 29.0426 211.726 28.3797 212.569 27.8778C213.412 27.3759 214.344 26.9924 215.367 26.7273C216.399 26.4621 217.465 26.2822 218.563 26.1875C219.832 26.0549 220.864 25.9271 221.66 25.804C222.465 25.6809 223.066 25.5057 223.464 25.2784C223.862 25.0417 224.103 24.6913 224.188 24.2273V24.142C224.33 23.2519 224.165 22.5606 223.691 22.0682C223.227 21.5663 222.484 21.3153 221.461 21.3153C220.381 21.3153 219.463 21.5521 218.705 22.0256C217.957 22.4991 217.422 23.1004 217.1 23.8295L211.589 23.375C212.081 22.0492 212.825 20.9034 213.819 19.9375C214.823 18.9621 216.03 18.214 217.441 17.6932C218.852 17.1629 220.433 16.8977 222.185 16.8977C223.397 16.8977 224.529 17.0398 225.58 17.3239C226.641 17.608 227.555 18.0483 228.322 18.6449C229.098 19.2415 229.657 20.0085 229.998 20.946C230.348 21.8741 230.419 22.9867 230.211 24.2841L227.754 39H222.015L222.526 35.9744H222.356C221.892 36.6562 221.324 37.2576 220.651 37.7784C219.979 38.2898 219.207 38.6922 218.336 38.9858C217.465 39.2699 216.489 39.4119 215.41 39.4119ZM217.839 35.2358C218.719 35.2358 219.529 35.0606 220.268 34.7102C221.016 34.3504 221.631 33.8674 222.114 33.2614C222.607 32.6553 222.919 31.9687 223.052 31.2017L223.421 28.8864C223.232 29.0095 222.957 29.1184 222.597 29.2131C222.247 29.3078 221.863 29.3977 221.447 29.483C221.04 29.5587 220.628 29.6297 220.211 29.696C219.794 29.7528 219.42 29.8097 219.089 29.8665C218.36 29.9706 217.706 30.1364 217.129 30.3636C216.551 30.5909 216.082 30.8987 215.722 31.2869C215.362 31.6657 215.14 32.1392 215.055 32.7074C214.922 33.5312 215.116 34.161 215.637 34.5966C216.167 35.0227 216.901 35.2358 217.839 35.2358ZM240.63 26.3864L238.528 39H232.491L236.127 17.1818H241.88L241.255 21.0312H241.496C242.188 19.7528 243.163 18.7443 244.423 18.0057C245.692 17.267 247.136 16.8977 248.755 16.8977C250.27 16.8977 251.534 17.2292 252.548 17.892C253.57 18.5549 254.29 19.4972 254.707 20.7188C255.133 21.9403 255.204 23.4034 254.92 25.108L252.59 39H246.539L248.684 26.1875C248.902 24.8523 248.731 23.8106 248.173 23.0625C247.623 22.3049 246.738 21.9261 245.516 21.9261C244.702 21.9261 243.954 22.1013 243.272 22.4517C242.59 22.8021 242.017 23.3134 241.553 23.9858C241.099 24.6487 240.791 25.4489 240.63 26.3864ZM263.851 32.7216L265.058 25.4631H265.939L274.334 17.1818H281.28L270.087 28.1477H268.638L263.851 32.7216ZM257.331 39L262.161 9.90909H268.212L263.382 39H257.331ZM270.967 39L266.138 29.4972L270.868 25.2216L278.055 39H270.967ZM291.493 9.90909L286.663 39H280.612L285.442 9.90909H291.493ZM291.511 39L295.147 17.1818H301.198L297.562 39H291.511ZM298.798 14.3409C297.898 14.3409 297.155 14.0426 296.567 13.446C295.99 12.84 295.753 12.1203 295.857 11.2869C295.961 10.4347 296.369 9.71496 297.079 9.12784C297.789 8.53125 298.594 8.23295 299.494 8.23295C300.393 8.23295 301.127 8.53125 301.695 9.12784C302.263 9.71496 302.5 10.4347 302.406 11.2869C302.311 12.1203 301.908 12.84 301.198 13.446C300.497 14.0426 299.697 14.3409 298.798 14.3409ZM310.591 26.3864L308.489 39H302.452L306.088 17.1818H311.841L311.216 21.0312H311.457C312.149 19.7528 313.124 18.7443 314.384 18.0057C315.652 17.267 317.097 16.8977 318.716 16.8977C320.231 16.8977 321.495 17.2292 322.509 17.892C323.531 18.5549 324.251 19.4972 324.668 20.7188C325.094 21.9403 325.165 23.4034 324.881 25.108L322.551 39H316.5L318.645 26.1875C318.863 24.8523 318.692 23.8106 318.134 23.0625C317.584 22.3049 316.699 21.9261 315.477 21.9261C314.663 21.9261 313.915 22.1013 313.233 22.4517C312.551 22.8021 311.978 23.3134 311.514 23.9858C311.06 24.6487 310.752 25.4489 310.591 26.3864Z" fill="black"/>
</g>
<defs>
<clipPath id="clip0_152_159">
<rect width="1512" height="6315" fill="white" transform="translate(-95 -751)"/>
</clipPath>
</defs>
</svg>
