<svg width="374" height="58" viewBox="0 0 374 58" fill="none" xmlns="http://www.w3.org/2000/svg">
<g clip-path="url(#clip0_152_159)">
<rect width="1512" height="6315" transform="translate(-564 -749)" fill="#F6F6F6"/>
<path d="M153.801 26.8523C153.271 29.9583 152.243 32.5956 150.719 34.7642C149.204 36.9328 147.352 38.5805 145.165 39.7074C142.987 40.8343 140.638 41.3977 138.119 41.3977C135.477 41.3977 133.2 40.7964 131.287 39.5938C129.384 38.3911 128.006 36.6534 127.153 34.3807C126.301 32.0985 126.14 29.3475 126.67 26.1278C127.182 23.0123 128.2 20.3703 129.724 18.2017C131.249 16.0237 133.11 14.3665 135.307 13.2301C137.504 12.0843 139.866 11.5114 142.395 11.5114C145.018 11.5114 147.281 12.1174 149.185 13.3295C151.098 14.5417 152.475 16.2936 153.318 18.5852C154.17 20.8674 154.331 23.6231 153.801 26.8523ZM147.679 26.1278C148.01 24.1297 147.996 22.4536 147.636 21.0994C147.286 19.7358 146.642 18.7036 145.705 18.0028C144.767 17.3021 143.583 16.9517 142.153 16.9517C140.6 16.9517 139.175 17.34 137.878 18.1165C136.59 18.893 135.501 20.0199 134.611 21.4972C133.73 22.965 133.119 24.75 132.778 26.8523C132.438 28.8598 132.447 30.536 132.807 31.8807C133.176 33.2254 133.834 34.2434 134.781 34.9347C135.738 35.6165 136.926 35.9574 138.347 35.9574C139.89 35.9574 141.301 35.5786 142.58 34.821C143.867 34.054 144.952 32.9413 145.832 31.483C146.713 30.0152 147.329 28.2301 147.679 26.1278ZM155.999 41L160.829 11.9091H166.88L165.09 22.8466H165.261C165.621 22.2595 166.103 21.6629 166.71 21.0568C167.325 20.4413 168.078 19.9299 168.968 19.5227C169.858 19.1061 170.914 18.8977 172.136 18.8977C173.727 18.8977 175.123 19.3144 176.326 20.1477C177.529 20.9716 178.395 22.2169 178.925 23.8835C179.456 25.5407 179.513 27.6193 179.096 30.1193C178.698 32.553 177.964 34.608 176.894 36.2841C175.834 37.9508 174.56 39.215 173.073 40.0767C171.596 40.929 170.029 41.3551 168.371 41.3551C167.197 41.3551 166.231 41.161 165.474 40.7727C164.726 40.3845 164.143 39.8968 163.727 39.3097C163.31 38.7131 163.012 38.1117 162.832 37.5057H162.533L161.965 41H155.999ZM163.741 30.0909C163.532 31.3883 163.528 32.5199 163.727 33.4858C163.935 34.4517 164.333 35.2045 164.92 35.7443C165.516 36.2746 166.298 36.5398 167.263 36.5398C168.258 36.5398 169.138 36.2699 169.906 35.7301C170.682 35.1809 171.326 34.4233 171.837 33.4574C172.349 32.482 172.709 31.3598 172.917 30.0909C173.116 28.8314 173.121 27.7235 172.931 26.767C172.742 25.8106 172.353 25.0625 171.766 24.5227C171.179 23.983 170.384 23.7131 169.38 23.7131C168.405 23.7131 167.529 23.9735 166.752 24.4943C165.985 25.0152 165.341 25.7538 164.82 26.7102C164.309 27.6667 163.949 28.7936 163.741 30.0909ZM181.315 41L184.952 19.1818H190.818L190.179 22.9886H190.406C191.031 21.6345 191.869 20.6117 192.92 19.9205C193.981 19.2197 195.122 18.8693 196.344 18.8693C196.647 18.8693 196.964 18.8883 197.295 18.9261C197.636 18.9545 197.939 19.0019 198.205 19.0682L197.295 24.4517C197.03 24.357 196.652 24.2812 196.159 24.2244C195.676 24.1581 195.217 24.125 194.781 24.125C193.901 24.125 193.081 24.3191 192.324 24.7074C191.566 25.0862 190.927 25.6165 190.406 26.2983C189.895 26.9801 189.559 27.7661 189.398 28.6562L187.366 41H181.315ZM203.222 41.4119C201.84 41.4119 200.642 41.1705 199.629 40.6875C198.625 40.1951 197.886 39.4659 197.413 38.5C196.939 37.5341 196.821 36.3362 197.058 34.9062C197.266 33.6941 197.659 32.6809 198.237 31.8665C198.824 31.0426 199.539 30.3797 200.381 29.8778C201.224 29.3759 202.157 28.9924 203.18 28.7273C204.212 28.4621 205.277 28.2822 206.376 28.1875C207.645 28.0549 208.677 27.9271 209.472 27.804C210.277 27.6809 210.879 27.5057 211.276 27.2784C211.674 27.0417 211.915 26.6913 212.001 26.2273V26.142C212.143 25.2519 211.977 24.5606 211.504 24.0682C211.04 23.5663 210.296 23.3153 209.273 23.3153C208.194 23.3153 207.275 23.5521 206.518 24.0256C205.77 24.4991 205.235 25.1004 204.913 25.8295L199.401 25.375C199.894 24.0492 200.637 22.9034 201.631 21.9375C202.635 20.9621 203.843 20.214 205.254 19.6932C206.665 19.1629 208.246 18.8977 209.998 18.8977C211.21 18.8977 212.342 19.0398 213.393 19.3239C214.453 19.608 215.367 20.0483 216.134 20.6449C216.911 21.2415 217.469 22.0085 217.81 22.946C218.161 23.8741 218.232 24.9867 218.023 26.2841L215.566 41H209.827L210.339 37.9744H210.168C209.704 38.6562 209.136 39.2576 208.464 39.7784C207.791 40.2898 207.02 40.6922 206.148 40.9858C205.277 41.2699 204.302 41.4119 203.222 41.4119ZM205.651 37.2358C206.532 37.2358 207.342 37.0606 208.08 36.7102C208.828 36.3504 209.444 35.8674 209.927 35.2614C210.419 34.6553 210.732 33.9687 210.864 33.2017L211.234 30.8864C211.044 31.0095 210.77 31.1184 210.41 31.2131C210.059 31.3078 209.676 31.3977 209.259 31.483C208.852 31.5587 208.44 31.6297 208.023 31.696C207.607 31.7528 207.233 31.8097 206.901 31.8665C206.172 31.9706 205.519 32.1364 204.941 32.3636C204.363 32.5909 203.895 32.8987 203.535 33.2869C203.175 33.6657 202.952 34.1392 202.867 34.7074C202.735 35.5312 202.929 36.161 203.45 36.5966C203.98 37.0227 204.714 37.2358 205.651 37.2358Z" fill="black"/>
</g>
<defs>
<clipPath id="clip0_152_159">
<rect width="1512" height="6315" fill="white" transform="translate(-564 -749)"/>
</clipPath>
</defs>
</svg>
