<svg width="374" height="58" viewBox="0 0 374 58" fill="none" xmlns="http://www.w3.org/2000/svg">
<g clip-path="url(#clip0_152_159)">
<rect width="1512" height="6315" transform="translate(-1059 -746)" fill="#F6F6F6"/>
<path d="M50.7102 44L55.5398 14.9091H61.6903L57.7131 38.929H70.1847L69.3324 44H50.7102ZM83.1783 44.4261C80.9434 44.4261 79.0921 43.9716 77.6243 43.0625C76.1565 42.1439 75.1243 40.8466 74.5277 39.1705C73.9406 37.4848 73.8411 35.4915 74.2294 33.1903C74.6082 30.946 75.3705 28.9763 76.5163 27.2812C77.6716 25.5862 79.1205 24.2652 80.8629 23.3182C82.6054 22.3712 84.5466 21.8977 86.6868 21.8977C88.1262 21.8977 89.4283 22.1297 90.593 22.5938C91.7673 23.0483 92.7427 23.7396 93.5192 24.6676C94.2957 25.5862 94.826 26.7367 95.1101 28.1193C95.4036 29.5019 95.3989 31.1212 95.0959 32.9773L94.826 34.6392H76.4169L76.9993 30.8892H89.7266C89.8686 30.018 89.8118 29.2462 89.5561 28.5739C89.3004 27.9015 88.8743 27.3759 88.2777 26.9972C87.6811 26.6089 86.9472 26.4148 86.076 26.4148C85.1858 26.4148 84.3525 26.6326 83.576 27.0682C82.7995 27.5038 82.1461 28.0767 81.6158 28.7869C81.0949 29.4877 80.7588 30.25 80.6072 31.0739L79.9396 34.7955C79.7502 35.9413 79.7881 36.893 80.0533 37.6506C80.3279 38.4081 80.8014 38.9763 81.4737 39.3551C82.1461 39.7244 82.9983 39.9091 84.0305 39.9091C84.7029 39.9091 85.3326 39.8144 85.9197 39.625C86.5163 39.4356 87.0466 39.1562 87.5107 38.7869C87.9747 38.4081 88.3535 37.9394 88.647 37.3807L94.1726 37.75C93.6612 39.0947 92.8847 40.2689 91.843 41.2727C90.8014 42.267 89.5466 43.0436 88.0788 43.6023C86.6205 44.1515 84.987 44.4261 83.1783 44.4261ZM120.629 22.1818L109.364 44H102.546L98.5547 22.1818H104.719L106.651 37.7926H106.879L113.995 22.1818H120.629ZM134.29 14.9091H141.875L146.662 34.4545H147.003L158.239 14.9091H165.824L160.994 44H155.028L158.182 25.0653H157.926L147.301 43.858H143.224L138.849 24.9943H138.608L135.426 44H129.46L134.29 14.9091ZM172.113 44.4119C170.73 44.4119 169.532 44.1705 168.519 43.6875C167.515 43.1951 166.777 42.4659 166.303 41.5C165.83 40.5341 165.711 39.3362 165.948 37.9062C166.156 36.6941 166.549 35.6809 167.127 34.8665C167.714 34.0426 168.429 33.3797 169.272 32.8778C170.115 32.3759 171.048 31.9924 172.07 31.7273C173.103 31.4621 174.168 31.2822 175.266 31.1875C176.535 31.0549 177.567 30.9271 178.363 30.804C179.168 30.6809 179.769 30.5057 180.167 30.2784C180.565 30.0417 180.806 29.6913 180.891 29.2273V29.142C181.033 28.2519 180.868 27.5606 180.394 27.0682C179.93 26.5663 179.187 26.3153 178.164 26.3153C177.085 26.3153 176.166 26.5521 175.408 27.0256C174.66 27.4991 174.125 28.1004 173.803 28.8295L168.292 28.375C168.784 27.0492 169.528 25.9034 170.522 24.9375C171.526 23.9621 172.733 23.214 174.144 22.6932C175.555 22.1629 177.137 21.8977 178.888 21.8977C180.101 21.8977 181.232 22.0398 182.283 22.3239C183.344 22.608 184.258 23.0483 185.025 23.6449C185.801 24.2415 186.36 25.0085 186.701 25.946C187.051 26.8741 187.122 27.9867 186.914 29.2841L184.457 44H178.718L179.229 40.9744H179.059C178.595 41.6562 178.027 42.2576 177.354 42.7784C176.682 43.2898 175.91 43.6922 175.039 43.9858C174.168 44.2699 173.192 44.4119 172.113 44.4119ZM174.542 40.2358C175.423 40.2358 176.232 40.0606 176.971 39.7102C177.719 39.3504 178.335 38.8674 178.817 38.2614C179.31 37.6553 179.622 36.9687 179.755 36.2017L180.124 33.8864C179.935 34.0095 179.66 34.1184 179.3 34.2131C178.95 34.3078 178.567 34.3977 178.15 34.483C177.743 34.5587 177.331 34.6297 176.914 34.696C176.497 34.7528 176.123 34.8097 175.792 34.8665C175.063 34.9706 174.409 35.1364 173.832 35.3636C173.254 35.5909 172.785 35.8987 172.425 36.2869C172.066 36.6657 171.843 37.1392 171.758 37.7074C171.625 38.5312 171.819 39.161 172.34 39.5966C172.871 40.0227 173.604 40.2358 174.542 40.2358ZM197.333 31.3864L195.231 44H189.194L192.83 22.1818H198.583L197.958 26.0312H198.2C198.891 24.7528 199.866 23.7443 201.126 23.0057C202.395 22.267 203.839 21.8977 205.458 21.8977C206.973 21.8977 208.237 22.2292 209.251 22.892C210.273 23.5549 210.993 24.4972 211.41 25.7188C211.836 26.9403 211.907 28.4034 211.623 30.108L209.293 44H203.242L205.387 31.1875C205.605 29.8523 205.434 28.8106 204.876 28.0625C204.326 27.3049 203.441 26.9261 202.219 26.9261C201.405 26.9261 200.657 27.1013 199.975 27.4517C199.293 27.8021 198.72 28.3134 198.256 28.9858C197.802 29.6487 197.494 30.4489 197.333 31.3864ZM223.92 44.4261C221.695 44.4261 219.853 43.9527 218.395 43.0057C216.937 42.0492 215.909 40.7235 215.312 39.0284C214.725 37.3239 214.616 35.34 214.986 33.0767C215.346 30.8419 216.094 28.8864 217.23 27.2102C218.366 25.5341 219.811 24.232 221.562 23.304C223.314 22.3665 225.289 21.8977 227.486 21.8977C229.702 21.8977 231.539 22.3759 232.997 23.3324C234.455 24.2794 235.483 25.6051 236.08 27.3097C236.676 29.0142 236.79 30.9981 236.42 33.2614C236.051 35.4867 235.294 37.4375 234.148 39.1136C233.002 40.7898 231.558 42.0966 229.815 43.0341C228.073 43.9621 226.108 44.4261 223.92 44.4261ZM224.517 39.7386C225.54 39.7386 226.444 39.4498 227.23 38.8722C228.026 38.285 228.684 37.4896 229.205 36.4858C229.735 35.4725 230.104 34.3267 230.312 33.0483C230.521 31.7888 230.535 30.6714 230.355 29.696C230.175 28.7112 229.796 27.9347 229.219 27.3665C228.651 26.7983 227.869 26.5142 226.875 26.5142C225.852 26.5142 224.943 26.8078 224.148 27.3949C223.352 27.9725 222.694 28.768 222.173 29.7812C221.652 30.7945 221.288 31.9451 221.08 33.233C220.881 34.483 220.866 35.6004 221.037 36.5852C221.207 37.5606 221.581 38.3324 222.159 38.9006C222.737 39.4593 223.523 39.7386 224.517 39.7386ZM261.839 22.1818L250.575 44H243.757L239.766 22.1818H245.93L247.862 37.7926H248.089L255.206 22.1818H261.839ZM261.3 44L264.936 22.1818H270.987L267.351 44H261.3ZM268.587 19.3409C267.687 19.3409 266.944 19.0426 266.357 18.446C265.779 17.84 265.542 17.1203 265.646 16.2869C265.75 15.4347 266.158 14.715 266.868 14.1278C267.578 13.5312 268.383 13.233 269.283 13.233C270.182 13.233 270.916 13.5312 271.484 14.1278C272.053 14.715 272.289 15.4347 272.195 16.2869C272.1 17.1203 271.697 17.84 270.987 18.446C270.286 19.0426 269.486 19.3409 268.587 19.3409ZM281.999 44.4261C279.755 44.4261 277.908 43.9527 276.46 43.0057C275.02 42.0492 274.012 40.7235 273.434 39.0284C272.866 37.3333 272.766 35.3826 273.136 33.1761C273.496 30.9413 274.248 28.9811 275.394 27.2955C276.54 25.6004 277.994 24.2794 279.755 23.3324C281.526 22.3759 283.514 21.8977 285.721 21.8977C287.624 21.8977 289.234 22.2434 290.55 22.9347C291.867 23.6259 292.833 24.5966 293.448 25.8466C294.064 27.0966 294.272 28.5644 294.073 30.25H288.377C288.387 29.1705 288.107 28.2945 287.539 27.6222C286.971 26.9498 286.138 26.6136 285.039 26.6136C284.092 26.6136 283.221 26.8693 282.425 27.3807C281.639 27.8826 280.972 28.6165 280.423 29.5824C279.883 30.5483 279.504 31.7178 279.286 33.0909C279.059 34.483 279.054 35.6667 279.272 36.642C279.49 37.6174 279.906 38.3608 280.522 38.8722C281.138 39.3835 281.914 39.6392 282.852 39.6392C283.552 39.6392 284.201 39.4972 284.798 39.2131C285.404 38.929 285.934 38.517 286.388 37.9773C286.843 37.428 287.193 36.7699 287.44 36.0028H293.15C292.762 37.679 292.056 39.1468 291.033 40.4062C290.02 41.6657 288.746 42.6506 287.212 43.3608C285.678 44.071 283.941 44.4261 281.999 44.4261ZM303.857 31.3864L301.754 44H295.717L300.547 14.9091H306.413L304.595 26.0312H304.837C305.537 24.7434 306.499 23.7348 307.72 23.0057C308.942 22.267 310.386 21.8977 312.053 21.8977C313.568 21.8977 314.832 22.2292 315.845 22.892C316.868 23.5455 317.592 24.4877 318.018 25.7188C318.445 26.9403 318.516 28.4034 318.232 30.108L315.902 44H309.865L311.996 31.1875C312.214 29.8428 312.038 28.7964 311.47 28.0483C310.911 27.3002 310.021 26.9261 308.8 26.9261C307.976 26.9261 307.218 27.1013 306.527 27.4517C305.836 27.8021 305.253 28.3134 304.78 28.9858C304.316 29.6487 304.008 30.4489 303.857 31.3864Z" fill="black"/>
</g>
<defs>
<clipPath id="clip0_152_159">
<rect width="1512" height="6315" fill="white" transform="translate(-1059 -746)"/>
</clipPath>
</defs>
</svg>
